<svg width="254" height="72" viewBox="0 0 254 72" fill="none" xmlns="http://www.w3.org/2000/svg">
<path fill-rule="evenodd" clip-rule="evenodd" d="M6.79492 4.30859H65.8125C67.252 4.30859 68.4297 5.48633 68.4297 6.92578V65.9434C68.4297 67.3828 67.252 68.5605 65.8125 68.5605H6.79492C5.35547 68.5605 4.17773 67.3828 4.17773 65.9434V6.92578C4.17773 5.48633 5.35547 4.30859 6.79492 4.30859ZM8.49609 6.14062H64.1113C65.4199 6.14062 66.5977 7.1875 66.5977 8.62695V64.2422C66.5977 65.5508 65.5508 66.7285 64.1113 66.7285H8.49609C7.1875 66.7285 6.00977 65.6816 6.00977 64.2422V8.62695C6.00977 7.31836 7.05664 6.14062 8.49609 6.14062Z" fill="#2A63A5"/>
<path d="M30.3496 47.8848H36.7617C38.8555 47.8848 40.4258 47.623 41.3418 46.9688C42.2578 46.3145 42.6504 45.2676 42.6504 43.959C42.6504 42.5195 42.127 41.4727 41.2109 40.9492C40.2949 40.2949 38.7246 40.0332 36.6309 40.0332C30.0879 40.0332 23.5449 40.0332 17.002 40.0332V32.1816C23.4141 32.1816 29.6953 32.1816 36.1074 32.1816C38.0703 32.1816 39.3789 31.9199 40.1641 31.3965C40.9492 30.873 41.3418 29.8262 41.3418 28.5176C41.3418 27.0781 40.9492 26.1621 40.0332 25.6387C39.248 25.1152 37.2852 24.8535 34.2754 24.8535H30.4805V27.9941H17.1328V15.0391H34.7988C38.5938 15.0391 41.3418 15.1699 43.043 15.3008C44.7441 15.5625 46.3145 15.8242 47.4922 16.2168C49.7168 17.002 51.2871 18.3105 52.4648 20.0117C53.6426 21.7129 54.166 23.8066 54.166 26.293C54.166 28.2559 53.7734 29.957 52.8574 31.3965C51.9414 32.8359 50.6328 34.0137 48.9316 34.9297C51.1562 35.7148 52.8574 37.0234 54.0352 38.5938C55.082 40.2949 55.7363 42.3887 55.7363 45.0059C55.7363 47.623 55.2129 49.7168 54.166 51.6797C53.1191 53.5117 51.5488 54.9512 49.5859 55.998C48.2773 56.6523 46.707 57.1758 44.875 57.4375C43.1738 57.6992 40.1641 57.8301 36.1074 57.8301H17.002V44.0898H30.3496V47.7539V47.8848Z" fill="#2A63A5"/>
<path d="M90.6695 52V21.4545H102.9C105.147 21.4545 107.021 21.7876 108.522 22.4538C110.024 23.12 111.152 24.0447 111.908 25.228C112.664 26.4013 113.042 27.7536 113.042 29.2848C113.042 30.478 112.803 31.527 112.326 32.4318C111.848 33.3267 111.192 34.0625 110.357 34.6392C109.532 35.206 108.587 35.6087 107.523 35.8473V36.1456C108.687 36.1953 109.775 36.5234 110.79 37.13C111.814 37.7365 112.644 38.5866 113.28 39.6804C113.917 40.7642 114.235 42.0568 114.235 43.5582C114.235 45.179 113.832 46.6257 113.027 47.8984C112.231 49.1612 111.053 50.1605 109.492 50.8963C107.931 51.6321 106.007 52 103.72 52H90.6695ZM97.1276 46.7202H102.392C104.192 46.7202 105.505 46.3771 106.33 45.6911C107.155 44.995 107.568 44.0703 107.568 42.9169C107.568 42.0717 107.364 41.326 106.956 40.6797C106.549 40.0334 105.967 39.5263 105.211 39.1584C104.466 38.7905 103.576 38.6065 102.542 38.6065H97.1276V46.7202ZM97.1276 34.2365H101.915C102.8 34.2365 103.586 34.0824 104.272 33.7741C104.968 33.456 105.515 33.0085 105.912 32.4318C106.32 31.8551 106.524 31.1641 106.524 30.3587C106.524 29.255 106.131 28.3651 105.346 27.6889C104.57 27.0128 103.466 26.6747 102.035 26.6747H97.1276V34.2365ZM124.85 52.4325C123.389 52.4325 122.086 52.179 120.943 51.6719C119.799 51.1548 118.894 50.3942 118.228 49.3899C117.572 48.3757 117.244 47.1129 117.244 45.6016C117.244 44.3288 117.478 43.2599 117.945 42.3949C118.412 41.5298 119.049 40.8338 119.854 40.3068C120.659 39.7798 121.574 39.3821 122.598 39.1136C123.632 38.8452 124.716 38.6562 125.85 38.5469C127.182 38.4077 128.256 38.2784 129.071 38.1591C129.887 38.0298 130.478 37.8409 130.846 37.5923C131.214 37.3437 131.398 36.9759 131.398 36.4886V36.3991C131.398 35.4545 131.1 34.7237 130.503 34.2067C129.916 33.6896 129.081 33.4311 127.997 33.4311C126.854 33.4311 125.944 33.6847 125.268 34.1918C124.592 34.6889 124.144 35.3153 123.926 36.071L118.049 35.5938C118.348 34.2017 118.934 32.9986 119.809 31.9844C120.684 30.9602 121.813 30.1747 123.195 29.6278C124.587 29.071 126.198 28.7926 128.027 28.7926C129.3 28.7926 130.518 28.9418 131.681 29.2401C132.855 29.5384 133.894 30.0007 134.799 30.6271C135.713 31.2536 136.434 32.0589 136.961 33.0433C137.488 34.0178 137.752 35.1861 137.752 36.5483V52H131.726V48.8232H131.547C131.179 49.5391 130.687 50.1705 130.071 50.7173C129.454 51.2543 128.713 51.6768 127.848 51.9851C126.983 52.2834 125.984 52.4325 124.85 52.4325ZM126.67 48.0476C127.605 48.0476 128.43 47.8636 129.146 47.4957C129.862 47.1179 130.424 46.6108 130.831 45.9744C131.239 45.3381 131.443 44.6172 131.443 43.8118V41.3807C131.244 41.5099 130.97 41.6293 130.622 41.7386C130.284 41.8381 129.902 41.9325 129.474 42.022C129.046 42.1016 128.619 42.1761 128.191 42.2457C127.764 42.3054 127.376 42.3601 127.028 42.4098C126.282 42.5192 125.631 42.6932 125.074 42.9318C124.517 43.1705 124.085 43.4936 123.777 43.9013C123.468 44.299 123.314 44.7962 123.314 45.3928C123.314 46.2578 123.627 46.919 124.254 47.3764C124.89 47.8239 125.696 48.0476 126.67 48.0476ZM161.742 35.6236L155.925 35.9815C155.826 35.4844 155.612 35.0369 155.284 34.6392C154.956 34.2315 154.523 33.9084 153.986 33.6697C153.459 33.4212 152.828 33.2969 152.092 33.2969C151.108 33.2969 150.278 33.5057 149.601 33.9233C148.925 34.331 148.587 34.8778 148.587 35.5639C148.587 36.1108 148.806 36.5732 149.244 36.951C149.681 37.3288 150.432 37.6321 151.496 37.8608L155.642 38.696C157.869 39.1534 159.53 39.8892 160.623 40.9034C161.717 41.9176 162.264 43.25 162.264 44.9006C162.264 46.402 161.822 47.7195 160.937 48.853C160.062 49.9865 158.859 50.8714 157.327 51.5078C155.806 52.1342 154.051 52.4474 152.062 52.4474C149.03 52.4474 146.614 51.8161 144.814 50.5533C143.024 49.2805 141.975 47.5504 141.667 45.3629L147.916 45.0348C148.105 45.9595 148.562 46.6655 149.288 47.1527C150.014 47.63 150.944 47.8686 152.077 47.8686C153.191 47.8686 154.086 47.6548 154.762 47.2273C155.448 46.7898 155.796 46.228 155.806 45.5419C155.796 44.9652 155.552 44.4929 155.075 44.125C154.598 43.7472 153.862 43.4588 152.868 43.2599L148.9 42.4695C146.663 42.022 144.998 41.2464 143.904 40.1428C142.82 39.0391 142.278 37.6321 142.278 35.9219C142.278 34.4503 142.676 33.1825 143.472 32.1186C144.277 31.0547 145.405 30.2344 146.857 29.6577C148.319 29.081 150.029 28.7926 151.988 28.7926C154.881 28.7926 157.158 29.4041 158.819 30.6271C160.489 31.8501 161.464 33.5156 161.742 35.6236ZM185.326 35.6236L179.509 35.9815C179.41 35.4844 179.196 35.0369 178.868 34.6392C178.54 34.2315 178.107 33.9084 177.57 33.6697C177.043 33.4212 176.412 33.2969 175.676 33.2969C174.692 33.2969 173.862 33.5057 173.185 33.9233C172.509 34.331 172.171 34.8778 172.171 35.5639C172.171 36.1108 172.39 36.5732 172.828 36.951C173.265 37.3288 174.016 37.6321 175.08 37.8608L179.226 38.696C181.453 39.1534 183.114 39.8892 184.207 40.9034C185.301 41.9176 185.848 43.25 185.848 44.9006C185.848 46.402 185.406 47.7195 184.521 48.853C183.646 49.9865 182.443 50.8714 180.911 51.5078C179.39 52.1342 177.635 52.4474 175.646 52.4474C172.614 52.4474 170.198 51.8161 168.398 50.5533C166.608 49.2805 165.559 47.5504 165.251 45.3629L171.5 45.0348C171.689 45.9595 172.146 46.6655 172.872 47.1527C173.598 47.63 174.528 47.8686 175.661 47.8686C176.775 47.8686 177.67 47.6548 178.346 47.2273C179.032 46.7898 179.38 46.228 179.39 45.5419C179.38 44.9652 179.136 44.4929 178.659 44.125C178.182 43.7472 177.446 43.4588 176.452 43.2599L172.484 42.4695C170.247 42.022 168.582 41.2464 167.488 40.1428C166.404 39.0391 165.862 37.6321 165.862 35.9219C165.862 34.4503 166.26 33.1825 167.055 32.1186C167.861 31.0547 168.989 30.2344 170.441 29.6577C171.903 29.081 173.613 28.7926 175.572 28.7926C178.465 28.7926 180.742 29.4041 182.403 30.6271C184.073 31.8501 185.048 33.5156 185.326 35.6236ZM196.382 52.4325C194.92 52.4325 193.617 52.179 192.474 51.6719C191.331 51.1548 190.426 50.3942 189.759 49.3899C189.103 48.3757 188.775 47.1129 188.775 45.6016C188.775 44.3288 189.009 43.2599 189.476 42.3949C189.943 41.5298 190.58 40.8338 191.385 40.3068C192.191 39.7798 193.105 39.3821 194.13 39.1136C195.164 38.8452 196.247 38.6562 197.381 38.5469C198.713 38.4077 199.787 38.2784 200.603 38.1591C201.418 38.0298 202.01 37.8409 202.377 37.5923C202.745 37.3437 202.929 36.9759 202.929 36.4886V36.3991C202.929 35.4545 202.631 34.7237 202.034 34.2067C201.448 33.6896 200.612 33.4311 199.529 33.4311C198.385 33.4311 197.475 33.6847 196.799 34.1918C196.123 34.6889 195.676 35.3153 195.457 36.071L189.581 35.5938C189.879 34.2017 190.465 32.9986 191.34 31.9844C192.215 30.9602 193.344 30.1747 194.726 29.6278C196.118 29.071 197.729 28.7926 199.559 28.7926C200.831 28.7926 202.049 28.9418 203.213 29.2401C204.386 29.5384 205.425 30.0007 206.33 30.6271C207.245 31.2536 207.965 32.0589 208.492 33.0433C209.019 34.0178 209.283 35.1861 209.283 36.5483V52H203.257V48.8232H203.078C202.71 49.5391 202.218 50.1705 201.602 50.7173C200.985 51.2543 200.245 51.6768 199.38 51.9851C198.514 52.2834 197.515 52.4325 196.382 52.4325ZM198.201 48.0476C199.136 48.0476 199.961 47.8636 200.677 47.4957C201.393 47.1179 201.955 46.6108 202.362 45.9744C202.77 45.3381 202.974 44.6172 202.974 43.8118V41.3807C202.775 41.5099 202.502 41.6293 202.154 41.7386C201.816 41.8381 201.433 41.9325 201.005 42.022C200.578 42.1016 200.15 42.1761 199.723 42.2457C199.295 42.3054 198.907 42.3601 198.559 42.4098C197.813 42.5192 197.162 42.6932 196.605 42.9318C196.049 43.1705 195.616 43.4936 195.308 43.9013C195 44.299 194.845 44.7962 194.845 45.3928C194.845 46.2578 195.159 46.919 195.785 47.3764C196.421 47.8239 197.227 48.0476 198.201 48.0476ZM214.212 52V29.0909H220.268V33.1328H220.536C221.013 31.7905 221.809 30.7315 222.922 29.956C224.036 29.1804 225.369 28.7926 226.92 28.7926C228.491 28.7926 229.828 29.1854 230.932 29.9709C232.035 30.7464 232.771 31.8004 233.139 33.1328H233.378C233.845 31.8203 234.69 30.7713 235.913 29.9858C237.146 29.1903 238.603 28.7926 240.283 28.7926C242.421 28.7926 244.156 29.4737 245.489 30.8359C246.831 32.1882 247.502 34.1072 247.502 36.593V52H241.163V37.8459C241.163 36.5732 240.825 35.6186 240.149 34.9822C239.473 34.3459 238.628 34.0277 237.614 34.0277C236.46 34.0277 235.56 34.3956 234.914 35.1314C234.268 35.8572 233.945 36.8168 233.945 38.0099V52H227.785V37.7116C227.785 36.5881 227.462 35.6932 226.815 35.027C226.179 34.3608 225.339 34.0277 224.295 34.0277C223.589 34.0277 222.952 34.2067 222.386 34.5646C221.829 34.9126 221.386 35.4048 221.058 36.0412C220.73 36.6676 220.566 37.4034 220.566 38.2486V52H214.212Z" fill="#2A63A5"/>
</svg>
