<svg xmlns="http://www.w3.org/2000/svg"  viewBox="0 0 128 128" width="64px" height="64px"><path d="M 69 2 C 50.8 2 36 16.8 36 35 L 36 37 L 34 37 C 21.3 37 11 47.3 11 60 C 11 61.7 12.3 63 14 63 C 15.7 63 17 61.7 17 60 C 17 50.6 24.6 43 34 43 L 39 43 C 40.7 43 42 41.7 42 40 L 42 35 C 42 20.1 54.1 8 69 8 C 83.9 8 96 20.1 96 35 L 96 40 C 96 41.7 97.3 43 99 43 L 104 43 C 113.4 43 121 50.6 121 60 C 121 69.4 113.4 77 104 77 L 74 77 C 72.3 77 71 78.3 71 80 C 71 81.7 72.3 83 74 83 L 104 83 C 116.7 83 127 72.7 127 60 C 127 47.3 116.7 37 104 37 L 102 37 L 102 35 C 102 16.8 87.2 2 69 2 z M 14 72 C 12.3 72 11 73.3 11 75 L 11 100 C 11 101.7 12.3 103 14 103 C 15.7 103 17 101.7 17 100 L 17 75 C 17 73.3 15.7 72 14 72 z M 44.199219 77 C 42.599219 77 41.1 78.200781 41 79.800781 C 40.9 81.500781 42.3 83 44 83 L 54 83 C 55.7 83 57 81.7 57 80 L 57 79.800781 C 57 78.300781 55.699219 77 54.199219 77 L 44.199219 77 z M 114 88 C 112.3 88 111 89.3 111 91 L 111 100 C 111 101.7 112.3 103 114 103 C 115.7 103 117 101.7 117 100 L 117 91 C 117 89.3 115.7 88 114 88 z M 4 108 C 2.3 108 1 109.3 1 111 L 1 114 C 1 121.2 6.8 127 14 127 L 114 127 C 121.2 127 127 121.2 127 114 L 127 111 C 127 109.3 125.7 108 124 108 L 89 108 C 87.3 108 86 109.3 86 111 C 86 112.7 87.3 114 89 114 L 121 114 C 121 117.9 117.9 121 114 121 L 14 121 C 10.1 121 7 117.9 7 114 L 39 114 C 40.7 114 42 112.7 42 111 C 42 109.3 40.7 108 39 108 L 4 108 z M 54 108 C 52.3 108 51 109.3 51 111 C 51 112.7 52.3 114 54 114 L 74 114 C 75.7 114 77 112.7 77 111 C 77 109.3 75.7 108 74 108 L 54 108 z"/></svg>