<svg xmlns="http://www.w3.org/2000/svg" viewBox="0 0 48 48" width="48px" height="48px">
    <path fill="none" stroke="#9CA3AF" stroke-linecap="round" stroke-linejoin="round" stroke-width="3"
          d="M41.5,33.3v3.2c0,2.2-1.8,4-4,4h-27c-2.2,0-4-1.8-4-4V22.4"/>
    <path fill="none" stroke="#9CA3AF" stroke-linecap="round" stroke-linejoin="round" stroke-width="3"
          d="M6.5,17.3v-5.8c0-2.2,1.8-4,4-4h27c2.2,0,4,1.8,4,4v15.6"/>
    <path d="M14,26c-0.6,0-1-0.4-1-1v-4.7l-0.8,0.2c-0.5,0.1-1.1-0.2-1.2-0.7c-0.1-0.5,0.2-1.1,0.7-1.2l2-0.5c0.3-0.1,0.6,0,0.9,0.2	c0.2,0.2,0.4,0.5,0.4,0.8v6C15,25.6,14.6,26,14,26z"/>
    <path d="M22,36c-0.6,0-1-0.4-1-1v-4.7l-0.8,0.2c-0.5,0.1-1.1-0.2-1.2-0.7c-0.1-0.5,0.2-1.1,0.7-1.2l2-0.5c0.3-0.1,0.6,0,0.9,0.2	c0.2,0.2,0.4,0.5,0.4,0.8v6C23,35.6,22.6,36,22,36z"/>
    <path d="M36,26c-0.6,0-1-0.4-1-1v-4.7l-0.8,0.2c-0.5,0.1-1.1-0.2-1.2-0.7c-0.1-0.5,0.2-1.1,0.7-1.2l2-0.5c0.3-0.1,0.6,0,0.9,0.2	c0.2,0.2,0.4,0.5,0.4,0.8v6C37,25.6,36.6,26,36,26z"/>
    <path d="M36,36c-0.6,0-1-0.4-1-1v-4.7l-0.8,0.2c-0.5,0.1-1.1-0.2-1.2-0.7c-0.1-0.5,0.2-1.1,0.7-1.2l2-0.5c0.3-0.1,0.6,0,0.9,0.2	c0.2,0.2,0.4,0.5,0.4,0.8v6C37,35.6,36.6,36,36,36z"/>
    <path d="M20,26c-1.7,0-3-1.3-3-3v-2c0-1.7,1.3-3,3-3s3,1.3,3,3v2C23,24.7,21.7,26,20,26z M20,20c-0.6,0-1,0.4-1,1v2c0,0.6,0.4,1,1,1	s1-0.4,1-1v-2C21,20.4,20.6,20,20,20z"/>
    <path d="M28,26c-1.7,0-3-1.3-3-3v-2c0-1.7,1.3-3,3-3s3,1.3,3,3v2C31,24.7,29.7,26,28,26z M28,20c-0.6,0-1,0.4-1,1v2c0,0.6,0.4,1,1,1	s1-0.4,1-1v-2C29,20.4,28.6,20,28,20z"/>
    <path d="M14,36c-1.7,0-3-1.3-3-3v-2c0-1.7,1.3-3,3-3s3,1.3,3,3v2C17,34.7,15.7,36,14,36z M14,30c-0.6,0-1,0.4-1,1v2c0,0.6,0.4,1,1,1	s1-0.4,1-1v-2C15,30.4,14.6,30,14,30z"/>
    <path d="M28,36c-1.7,0-3-1.3-3-3v-2c0-1.7,1.3-3,3-3s3,1.3,3,3v2C31,34.7,29.7,36,28,36z M28,30c-0.6,0-1,0.4-1,1v2c0,0.6,0.4,1,1,1	s1-0.4,1-1v-2C29,30.4,28.6,30,28,30z"/>
    <line x1="6.5" x2="41.5" y1="13.5" y2="13.5" fill="none" stroke="#9CA3AF" stroke-linecap="round"
          stroke-linejoin="round" stroke-miterlimit="10" stroke-width="3"/>
</svg>