<svg xmlns="http://www.w3.org/2000/svg"  viewBox="0 0 32 32" width="32px" height="32px"><path d="M29.7,20.3l-2-2C27.5,18.1,27.3,18,27,18h-1v-2c0-0.6-0.4-1-1-1h-8v-1h3c0.6,0,1-0.4,1-1V5c0-0.3-0.1-0.5-0.3-0.7l-2-2 C18.5,2.1,18.3,2,18,2h-6c-0.6,0-1,0.4-1,1v10c0,0.6,0.4,1,1,1h3v1H7c-0.6,0-1,0.4-1,1v2H3c-0.6,0-1,0.4-1,1v10c0,0.6,0.4,1,1,1h8 c0.6,0,1-0.4,1-1v-8c0-0.3-0.1-0.5-0.3-0.7l-2-2C9.5,18.1,9.3,18,9,18H8v-1h16v1h-3c-0.6,0-1,0.4-1,1v10c0,0.6,0.4,1,1,1h8 c0.6,0,1-0.4,1-1v-8C30,20.7,29.9,20.5,29.7,20.3z M18.6,5H18V4.4L18.6,5z M13,12V4h3v2c0,0.6,0.4,1,1,1h2v5H13z M10,28H4v-8h3v2 c0,0.6,0.4,1,1,1h2V28z M9.6,21H9v-0.6L9.6,21z M27.6,21H27v-0.6L27.6,21z M28,28h-6v-8h3v2c0,0.6,0.4,1,1,1h2V28z"/></svg>