<svg xmlns="http://www.w3.org/2000/svg"  viewBox="0 0 50 50" width="50px" height="50px"><path d="M 23 0 C 15.77381 0 10.445563 2.4910019 7 6.4003906 C 3.554437 10.309779 2 15.559524 2 21 C 2 25.405557 3.3659916 29.507015 5.6757812 32.867188 C 7.7696127 35.913193 9 39.523726 9 43.199219 L 9 49 L 11 49 L 11 43.199219 C 11 39.078711 9.6283872 35.086369 7.3242188 31.734375 C 5.2360084 28.696547 4 24.992443 4 21 C 4 15.940476 5.445563 11.190221 8.5 7.7246094 C 11.554437 4.2589981 16.22619 2 23 2 C 29.802357 2 34.205432 3.9786035 37.115234 7.0058594 C 40.025037 10.033115 41.47309 14.205636 42.007812 18.71875 L 42.03125 18.925781 L 46.824219 27.185547 C 47.072591 27.635568 46.948819 28.078598 46.515625 28.322266 L 42 30.580078 L 42 36.601562 C 42 40.339878 38.919768 43.25078 35.195312 42.902344 L 35.179688 42.900391 L 31 42.632812 L 31 49 L 33 49 L 33 44.765625 L 35.009766 44.894531 C 39.87931 45.350095 44 41.457248 44 36.601562 L 44 31.816406 L 47.466797 30.083984 L 47.486328 30.072266 C 48.844997 29.315769 49.323557 27.566649 48.574219 26.214844 L 48.568359 26.205078 L 43.921875 18.199219 C 43.326241 13.516771 41.80508 8.998623 38.558594 5.6210938 C 35.243896 2.1725997 30.197643 -5.9211895e-16 23 0 z M 23.5 7 C 15.603639 7 9 12.261735 9 19 C 9 22.529498 10.890942 25.644425 13.748047 27.8125 C 13.47042 29.30177 12.845909 31.234 11.445312 32.167969 A 1.0001 1.0001 0 0 0 12 34 C 14.998568 34 17.776055 32.49205 19.728516 30.533203 C 20.938889 30.803479 22.188771 31 23.5 31 C 31.396361 31 38 25.738265 38 19 C 38 12.261735 31.396361 7 23.5 7 z M 23.5 9 C 30.515639 9 36 13.588265 36 19 C 36 24.411735 30.515639 29 23.5 29 C 22.179096 29 20.909072 28.834704 19.716797 28.53125 A 1.0001 1.0001 0 0 0 18.724609 28.833984 C 17.718066 29.95636 16.247374 30.768303 14.6875 31.330078 C 15.377211 30.018698 15.717341 28.625652 15.863281 27.601562 A 1.0001 1.0001 0 0 0 15.435547 26.632812 C 12.681327 24.765828 11 22.030258 11 19 C 11 13.588265 16.484361 9 23.5 9 z M 18.5 17 A 1.5 1.5 0 0 0 18.5 20 A 1.5 1.5 0 0 0 18.5 17 z M 23.5 17 A 1.5 1.5 0 0 0 23.5 20 A 1.5 1.5 0 0 0 23.5 17 z M 28.5 17 A 1.5 1.5 0 0 0 28.5 20 A 1.5 1.5 0 0 0 28.5 17 z"/></svg>