<svg xmlns="http://www.w3.org/2000/svg" viewBox="0 0 406.82552 513.94934">
  <defs>
    <linearGradient id="linear-gradient" x1="779.3415" y1="500.71387" x2="779.91345" y2="500.71387" gradientUnits="userSpaceOnUse">
      <stop offset="0" stop-color="#fff"/>
      <stop offset="1"/>
    </linearGradient>
  </defs>
  <g id="Layer_1">
    <path d="M395.88784,49.31433c2.57834,2.27787,5.82107,5.43964,9.36456,8.21773,10.82582,8.48742,21.44677,17.29078,32.74583,25.10608,13.84,9.57278,28.54211,17.89835,42.39151,27.45842a71.20019,71.20019,0,0,1,26.50671,33.41924c3.19494,8.38542,6.09987,17.30324,4.60395,26.88646-5.6495-3.483-10.87455-7.38549-16.65494-10.1095-8.817-4.15494-17.78205-8.31576-27.10885-10.99691-15.66084-4.502-31.75856-7.46623-47.483-11.76982-18.1952-4.97985-36.04915-3.70267-53.93313,1.135-18.4308,4.98566-36.99364,9.53634-55.24979,15.09484-10.96255,3.33781-21.35252,8.41149-30.02235,16.31428-.29979.27327-.85966.26117-1.76882.51183-.81339-9.763,1.4636-18.6824,4.99338-27.35071,7.60236-18.66942,21.57328-31.1495,38.66292-41.1581,12.87361-7.53948,25.15825-16.166,37.24993-24.93611C372.10955,68.48874,383.461,59.05136,395.88784,49.31433Z" transform="translate(-192.58724 -49.31433)" fill="#00acb4"/>
    <path d="M294.083,278.05935c0-2.81708,0-4.62319,0-6.4293-.00012-26.95953.33057-53.92544-.19095-80.87488-.16858-8.71,3.49195-13.96135,10.75806-16.84308,11.6448-4.61834,23.36874-9.24772,35.41476-12.5916,15.815-4.39015,31.98109-7.51111,47.98368-11.23175,6.59351-1.533,13.10441-.49571,19.46746.93183,16.39029,3.67714,32.87622,7.11205,48.97925,11.82207,11.02972,3.22614,21.68129,8.00448,32.11174,12.91728,5.73116,2.69944,8.51981,7.71017,8.39814,14.924-.44893,26.61912-.17843,53.25036-.17843,79.87707v6.7251c-6.73556-1.40273-12.78879-2.66332-18.93626-3.94355,0-10.90287.00737-20.7381-.00186-30.57333-.01152-12.27426.17141-24.55428-.16907-36.81961-.11893-4.28521-2.15188-7.85991-6.1447-10.5837-5.11849-3.4917-9.59562-7.92354-14.47349-12.05569-6.06484,5.19674-12.26833,9.72429-17.391,15.25318-2.35953,2.54662-3.58092,7.0365-3.64383,10.67422-.34234,19.79768-.16273,39.60442-.16273,59.408v6.29062c-6.30346,1.80714-12.58845,3.609-19.70065,5.64794-.11484-2.50513-.26279-4.24229-.26382-5.97955-.015-24.96254-.22728-49.928.11125-74.88594.11353-8.3707-2.47944-14.5192-9.52041-19.17192-3.96218-2.61828-7.308-6.16938-11.34756-9.65974-4.30279,3.33678-8.622,7.03963-13.29347,10.22618-7.01844,4.78754-8.65,11.04755-8.15613,19.37726.69349,11.6966-.48376,23.49374-.55085,35.24965-.04,7.01723.6297,14.03559.76747,21.05761.14377,7.33085.03209,14.66677.03209,22.99081-7.19863-1.60885-13.99814-3.12849-20.78253-4.64474,0-10.9445.0249-21.00921-.00628-31.07373-.03929-12.67557.03267-25.35477-.2698-38.02458-.11512-4.824-2.72452-8.57006-6.74821-11.45411-4.61813-3.31014-8.98264-6.97411-13.91159-10.84072-3.88138,3.00291-8.05268,6.63573-12.62338,9.66613-6.02665,3.99573-8.751,9.19356-8.65894,16.49193.24115,19.13495.08515,38.27484.08735,57.41278.00018,1.64119,0,3.28241,0,6.00851C305.692,274.82693,300.357,276.3124,294.083,278.05935Z" transform="translate(-192.58724 -49.31433)" fill="#00acb4"/>
    <path d="M240.30548,310.96348c21.34517-11.60909,44.05328-14.69774,66.7157-18.21684-9.23609,4.12736-18.47219,8.25473-29.04458,12.97923,3.62871,1.06584,6.11081,1.81007,8.60158,2.524,14.21147,4.07333,26.97664,11.18748,39.2258,19.19079,15.4242,10.07778,30.6184,20.51012,45.83156,30.90689,4.99926,3.41654,9.73165,7.222,14.62854,10.79132a21.22227,21.22227,0,0,0,3.176,1.54359c1.54925-20.34941,3.0557-40.13685,4.60529-60.49088-26.84372-7.53476-53.09465-16.21961-80.74832-19.298l-.09235-1.32552c3.64941-.36288,7.293-.80332,10.9492-1.075,14.34225-1.0659,28.10229,2.23372,41.70173,6.07069,8.09286,2.28331,15.83527,5.8096,23.92941,8.08685,3.685,1.03676,8.34269,1.65633,11.69691.31271a210.338,210.338,0,0,1,49.89191-13.692,81.27235,81.27235,0,0,1,28.2773,1.06944c-27.95553,2.92346-54.293,12.12263-81.735,19.789,1.4487,20.08772,2.88039,39.9395,4.36579,60.53618,36.97345-23.28892,69.87869-52.99316,114.24936-64.09679-11.44394-4.9295-21.5703-9.29149-32.21075-13.87491,10.35133-2.89462,61.93854,12.78877,65.68308,20.05785-3.88462,1.83-7.78344,3.62221-11.644,5.49339-14.54259,7.04865-29.03148,14.20984-43.62088,21.16005-11.48905,5.47321-23.132,10.62261-34.64157,16.05373-12.535,5.915-24.99818,11.98246-37.48645,17.99633-7.48386,3.604-14.86969,7.43208-22.48808,10.72308a10.93652,10.93652,0,0,1-7.43863.28811c-8.34184-3.10611-16.62882-6.44612-24.65831-10.28083-8.48478-4.05211-16.51233-9.05939-24.98657-13.13607-21.3463-10.269-42.8286-20.25556-64.26244-30.3423-11.63766-5.47672-23.30169-10.89784-34.90976-16.43634C242.77209,313.74871,241.99339,312.56367,240.30548,310.96348Z" transform="translate(-192.58724 -49.31433)" fill="#00acb4"/>
    <path d="M193.94321,318.236c2.70373.86746,5.49322,1.53335,8.09514,2.64019,7.79668,3.31654,15.4709,6.92256,23.28326,10.2003,12.43071,5.21543,24.96041,10.19467,37.39907,15.39144,10.01593,4.18454,19.93424,8.60237,29.93993,12.81178q28.7092,12.078,57.46907,24.0355c13.81392,5.76684,27.7501,11.26093,41.39063,17.4115,4.469,2.01507,7.8319.52613,11.54479-.97885,11.13436-4.513,22.30637-8.94117,33.34993-13.6682,16.19785-6.9332,32.25911-14.18531,48.45431-21.12488,8.09947-3.47058,16.43293-6.39421,24.54051-9.84712,9.28172-3.953,18.34759-8.41638,27.65565-12.30257,14.22963-5.941,28.59336-11.56014,42.88572-17.35158,5.9912-2.42769,11.94541-4.94682,17.91644-7.42434q.77255.5664,1.5451,1.13287c-2.14786,5.48979-3.6228,11.37577-6.5761,16.39132-7.37964,12.53311-18.73358,19.67658-32.68993,23.88667-22.01057,6.6396-43.69939,14.34321-65.5394,21.55115q-21.84155,7.2084-43.72816,14.27988c-14.81638,4.76543-30.11382,8.37493-44.36125,14.45671-10.45288,4.462-18.70935.20162-27.66409-2.49239-11.21483-3.37387-22.282-7.23747-33.42036-10.867q-13.23161-4.31157-26.48121-8.56789c-13.913-4.48074-27.84413-8.90579-41.74056-13.43724-7.424-2.42089-14.7834-5.03922-22.18644-7.52534-9.96618-3.3469-20.01035-6.4734-29.905-10.01856-13.80684-4.947-24.07144-13.70133-28.88653-28.03034-1.06424-3.167-2.42325-6.235-3.64653-9.34858Q193.26523,318.83821,193.94321,318.236Z" transform="translate(-192.58724 -49.31433)" fill="#00acb4"/>
    <path d="M268.462,282.7495c-5.229,1.82348-10.81192,3.48146-16.159,5.7061-7.1332,2.96768-14.16788,6.20629-21.07865,9.661-3.85424,1.92683-4.99618,1.61479-5.02773-2.7426-.08054-11.13207-.0276-22.26508-.02777-33.39773-.00018-13.2126.09671-26.42634-.05282-39.63724-.052-4.59186,1.21939-6.77986,6.24882-8.1119,8.29711-2.19746,16.324-4.21353,24.79962-1.63009a55.15459,55.15459,0,0,1,9.1912,3.23881,5.7612,5.7612,0,0,1,2.638,4.23481c.13868,20.47418.05321,40.94989.00317,61.4252C268.99613,281.79308,268.75209,282.08967,268.462,282.7495Z" transform="translate(-192.58724 -49.31433)" fill="#00acb4"/>
    <path d="M522.7938,282.51076c0-13.12156.00068-26.0502-.0003-38.97883q-.00074-8.96965-.00658-17.93928c-.00543-9.09731,1.607-10.94807,10.35537-13.00129,9.85211-2.31233,19.3737-.97224,28.54064,2.67517,1.83429.72984,3.86194,3.8106,3.88364,5.828.26529,24.62136.18922,49.24662.15606,73.87078-.00567,4.20683-2.31842,6.12141-4.86848,3.8907-9.59724-8.39539-21.559-11.05749-33.25258-14.47037C526.206,283.97831,524.87991,283.33268,522.7938,282.51076Z" transform="translate(-192.58724 -49.31433)" fill="#00acb4"/>
    <path d="M271.92877,203.73931c-8.46538-2.04778-16.80466-5.66615-25.12246-5.61747-7.98565.04669-15.94908,3.89387-24.25341,6.16142.53114-16.945,16.40357-18.898,24.69371-28.32084,7.02353,5.39159,13.98733,9.96587,19.93288,15.61232C270.36665,194.60158,273.25348,198.98826,271.92877,203.73931Z" transform="translate(-192.58724 -49.31433)" fill="#00acb4"/>
    <path d="M568.24873,204.80448c-15.70951-8.54827-31.43932-8.59207-47.052-.34246-2.15267-4.34465-.01134-11.59236,4.42087-14.80213,6.07453-4.39915,12.28945-8.60435,18.534-12.95525,6.45784,4.42045,13.62047,8.27951,19.36175,13.65629,3.29082,3.08185,4.2731,8.62876,6.29472,13.06588Q569.02835,204.11564,568.24873,204.80448Z" transform="translate(-192.58724 -49.31433)" fill="#00acb4"/>
    <g>
      <g>
        <path d="M319.17334,510.335q-12.64453.32226-20.46777-5.47851a31.18007,31.18007,0,0,1-5.61084-6.06934q-2.21339-3.00732-4.5835-3.11523-3.16113-.16114-8.416,2.98144-5.25659,3.14063-7.231,6.0957-3.39844,5.748-6.875,11.49414-3.71558,5.37012-8.85108,5.3711-6.323,0-11.30078-5.69336a21.96232,21.96232,0,0,1-5.21533-14.82422,40.47328,40.47328,0,0,1,1.50147-9.39941q.55151-2.20167,1.50146-2.20215,1.02612,0,.86914,2.52441-.07983,2.042-.395,4.56543-.15966,1.93359-.1582,3.16895a20.18344,20.18344,0,0,0,2.60791,9.77539q3.2395,6.123,8.69287,6.123a9.4682,9.4682,0,0,0,7.74463-3.75976q2.76489-4.51172,5.45263-8.96973a36.7098,36.7098,0,0,1,9.72022-10.52734q6.3208-4.56446,12.09082-4.56543,2.92236,0,6.16406,3.54492,5.05591,5.63966,5.68946,6.123,6.79614,5.31738,17.06982,5.31738Zm-42.27881-43.18359a7.43469,7.43469,0,0,1-.94824,3.22265q-1.18506,2.25587-2.687,2.25586a32.91013,32.91013,0,0,1-5.76856-2.09472q-5.45287-2.20167-5.45312-3.11524,0-.85839,3.87256-6.60644a42.52742,42.52742,0,0,0,7.50732,3.65234Q276.89428,465.80909,276.89453,467.15137Zm15.88428-3.11524a8.329,8.329,0,0,1-1.02735,2.90039,10.84693,10.84693,0,0,1-2.76611,3.59864q-3.16113-1.12794-6.24267-2.30957-4.34766-1.66407-4.34668-2.52442a16.67993,16.67993,0,0,1,1.65966-3.08887q1.65967-2.76562,2.37061-2.76562Q292.77833,462.85547,292.77881,464.03613Z" transform="translate(-192.58724 -49.31433)" fill="url(#linear-gradient)"/>
        <path d="M343.9082,492.8252q1.02613,5.63964-5.53174,10.90332a31.007,31.007,0,0,1-8.06054,4.18945,32.30665,32.30665,0,0,1-11.14258,2.417v-7.51953a42.3573,42.3573,0,0,0,14.77783-2.84668q6.95289-2.63087,6.32178-3.65234-1.10742-1.87939-8.61377-7.78809-7.19164-5.63966-9.957-11.2793-1.65967,0-1.58057-.59082.31494-2.04053.94824-5.47851.39479-1.61133,1.58057-.91309,4.03051,1.88087,9.72022,4.78028,1.9746,1.12793,1.97558,1.77246,0,.53758-1.26416.53711a31.991,31.991,0,0,1-4.03027-.21485q.71118,1.39746,7.82324,6.875Q343.19654,489.01172,343.9082,492.8252Zm-9.957,42.64648q.47388.53613-.83008,3.54492-1.30371,3.00732-2.80517,3.00781a22.65182,22.65182,0,0,1-4.5044-1.665q-4.26708-1.77247-4.26757-2.68555,0-.85986,3.79345-6.71387a23.74781,23.74781,0,0,0,5.68994,2.90039A6.58994,6.58994,0,0,1,333.95117,535.47168Zm13.90821-2.84668a8.22277,8.22277,0,0,1-1.106,3.00781,10.85234,10.85234,0,0,1-2.687,3.59864q-9.72-3.70606-9.72022-4.72657a14.763,14.763,0,0,1,1.50147-3.22265q1.65966-3.06153,2.4497-3.06153Q347.8584,531.44336,347.85938,532.625Z" transform="translate(-192.58724 -49.31433)" fill="url(#linear-gradient)"/>
        <path d="M374.41211,492.93262a44.75617,44.75617,0,0,1,.31592,5.21q0,8.91649-3.082,12.83691-1.18506,1.50294-1.73829,1.50391-.87084,0-.2373-3.4375a27.57184,27.57184,0,0,0,.0791-9.07715q-2.84472-15.36034-7.90234-46.19141-.63356-5.63964-2.13379-16.27441a24.3191,24.3191,0,0,0-2.13379-3.16895q-.47388-.59033,2.52881-6.82128a.51238.51238,0,0,1,.47412-.376q.78956,0,2.21289,2.30957,2.44848,3.54492,4.82031,7.08984,3.79321,5.47853,3.79346,6.82129c0,.28711-.1582.42969-.47412.42969a2.93681,2.93681,0,0,1-1.02735-.32227,36.01134,36.01134,0,0,1-4.18847-2.57812q-.15894,1.50439,3.24023,19.76562Q373.06763,482.40528,374.41211,492.93262Z" transform="translate(-192.58724 -49.31433)" fill="url(#linear-gradient)"/>
        <path d="M466.23828,510.335a21.87462,21.87462,0,0,1-13.51172-4.67285q-4.82226-3.65186-9.32617-16.75781a16.08022,16.08022,0,0,1-3.47656,5.96191q-5.76857,5.90917-19.75586,12.83691-16.35937,8.05665-27.73779,8.05665-12.01319,0-12.01221-12.13868,0-9.50683,10.66846-21.6455,2.13354-2.3628,3.16113-2.36329a.42328.42328,0,0,1,.47412.4834,5.33344,5.33344,0,0,1-1.34326,2.73926q-10.11695,13.26709-9.562,19.38965.47386,5.855,10.11523,5.85449,2.291,0,9.56152-1.87988a88.83222,88.83222,0,0,0,16.51661-6.01563q6.085-3.00732,8.84961-4.67285,9.00878-5.47851,13.19726-11.11816-.47168-1.66407-1.42187-4.99512-.31641-1.18067-4.97852-10.63476-3.63575-6.82032-7.34961-15.03907l1.42383-6.33789a.9671.9671,0,0,1,.71094-.32226q2.60742,0,11.93164,19.44336,3.39843,7.08984,7.0332,20.41015,2.13575,7.89551,7.19141,12.13867a14.38677,14.38677,0,0,0,9.64062,3.75977Z" transform="translate(-192.58724 -49.31433)" fill="url(#linear-gradient)"/>
        <path d="M529.419,543.33691l-.31641,2.95411q-6.48046,2.09472-21.09961,6.98242-9.88036,3.38379-26.94824,9.99023l.39551-2.90039q8.14013-3.11573,26.94726-9.99023Q515.90478,547.74071,529.419,543.33691Z" transform="translate(-192.58724 -49.31433)" fill="url(#linear-gradient)"/>
        <path d="M545.18555,489.49512q.71191,6.28418-2.292,9.748-3.00293,3.46583-6.16406,3.46485-16.99073,0-26.86816-3.22266a132.00419,132.00419,0,0,1-25.44629,7.94922Q471.4541,510.335,466.23926,510.335v-7.51953a106.30687,106.30687,0,0,0,14.541-1.77246,201.827,201.827,0,0,0,22.36426-4.94141,7.03781,7.03781,0,0,1-3.24023-5.74707q-.08056-3.91992,3.71386-8.3789a18.11259,18.11259,0,0,1,8.92969-6.06934,1.73985,1.73985,0,0,0,.55371-.10742v-.05371q-1.74022,0-1.581-.59082a27.38307,27.38307,0,0,0,.47461-6.28418c0-.93067.10449-1.39649.3164-1.39649q.07764,0,1.34278.53711,2.76563,1.23633,10.19433,3.65235,2.68653.85986,2.6875,1.5039c0,.3584-.73925.51953-2.21289.4834q-1.18651,0-4.03027-.16113,1.3418,1.45018,7.42773,3.65234a67.17208,67.17208,0,0,1,10.35254,4.458Q543.7627,484.93066,545.18555,489.49512Zm-24.57715-1.665a12.7482,12.7482,0,0,0-2.37012-5.04883q-1.81934-2.417-3.16113-2.417-2.29395,0-5.84766,2.20215-3.79393,2.31006-4.42578,4.61914,1.5,3.70605,7.90234,5.53222A24.87366,24.87366,0,0,0,520.6084,487.83008Zm20.46777,4.78027a31.89036,31.89036,0,0,0-8.69238-5.37109q-4.42675-1.77246-8.77246-3.49121a3.38887,3.38887,0,0,0-.86914-.26856l-.0791-.10742a10.68935,10.68935,0,0,1,.63281,3.81348q0,3.54492-4.18848,7.08984a117.56472,117.56472,0,0,0,17.62207.9668q4.5835-.10693,4.584-2.14844A.64166.64166,0,0,0,541.07617,492.61035Z" transform="translate(-192.58724 -49.31433)" fill="url(#linear-gradient)"/>
      </g>
      <g>
        <path d="M319.17334,510.335q-12.64453.32226-20.46777-5.47851a31.18007,31.18007,0,0,1-5.61084-6.06934q-2.21339-3.00732-4.5835-3.11523-3.16113-.16114-8.416,2.98144-5.25659,3.14063-7.231,6.0957-3.39844,5.748-6.875,11.49414-3.71558,5.37012-8.85108,5.3711-6.323,0-11.30078-5.69336a21.96232,21.96232,0,0,1-5.21533-14.82422,40.47328,40.47328,0,0,1,1.50147-9.39941q.55151-2.20167,1.50146-2.20215,1.02612,0,.86914,2.52441-.07983,2.042-.395,4.56543-.15966,1.93359-.1582,3.16895a20.18344,20.18344,0,0,0,2.60791,9.77539q3.2395,6.123,8.69287,6.123a9.4682,9.4682,0,0,0,7.74463-3.75976q2.76489-4.51172,5.45263-8.96973a36.7098,36.7098,0,0,1,9.72022-10.52734q6.3208-4.56446,12.09082-4.56543,2.92236,0,6.16406,3.54492,5.05591,5.63966,5.68946,6.123,6.79614,5.31738,17.06982,5.31738Zm-42.27881-43.18359a7.43469,7.43469,0,0,1-.94824,3.22265q-1.18506,2.25587-2.687,2.25586a32.91013,32.91013,0,0,1-5.76856-2.09472q-5.45287-2.20167-5.45312-3.11524,0-.85839,3.87256-6.60644a42.52742,42.52742,0,0,0,7.50732,3.65234Q276.89428,465.80909,276.89453,467.15137Zm15.88428-3.11524a8.329,8.329,0,0,1-1.02735,2.90039,10.84693,10.84693,0,0,1-2.76611,3.59864q-3.16113-1.12794-6.24267-2.30957-4.34766-1.66407-4.34668-2.52442a16.67993,16.67993,0,0,1,1.65966-3.08887q1.65967-2.76562,2.37061-2.76562Q292.77833,462.85547,292.77881,464.03613Z" transform="translate(-192.58724 -49.31433)" fill="#00adb5"/>
        <path d="M343.9082,492.8252q1.02613,5.63964-5.53174,10.90332a31.007,31.007,0,0,1-8.06054,4.18945,32.30665,32.30665,0,0,1-11.14258,2.417v-7.51953a42.3573,42.3573,0,0,0,14.77783-2.84668q6.95289-2.63087,6.32178-3.65234-1.10742-1.87939-8.61377-7.78809-7.19164-5.63966-9.957-11.2793-1.65967,0-1.58057-.59082.31494-2.04053.94824-5.47851.39479-1.61133,1.58057-.91309,4.03051,1.88087,9.72022,4.78028,1.9746,1.12793,1.97558,1.77246,0,.53758-1.26416.53711a31.991,31.991,0,0,1-4.03027-.21485q.71118,1.39746,7.82324,6.875Q343.19654,489.01172,343.9082,492.8252Zm-9.957,42.64648q.47388.53613-.83008,3.54492-1.30371,3.00732-2.80517,3.00781a22.65182,22.65182,0,0,1-4.5044-1.665q-4.26708-1.77247-4.26757-2.68555,0-.85986,3.79345-6.71387a23.74781,23.74781,0,0,0,5.68994,2.90039A6.58994,6.58994,0,0,1,333.95117,535.47168Zm13.90821-2.84668a8.22277,8.22277,0,0,1-1.106,3.00781,10.85234,10.85234,0,0,1-2.687,3.59864q-9.72-3.70606-9.72022-4.72657a14.763,14.763,0,0,1,1.50147-3.22265q1.65966-3.06153,2.4497-3.06153Q347.8584,531.44336,347.85938,532.625Z" transform="translate(-192.58724 -49.31433)" fill="#00adb5"/>
        <path d="M374.41211,492.93262a44.75617,44.75617,0,0,1,.31592,5.21q0,8.91649-3.082,12.83691-1.18506,1.50294-1.73829,1.50391-.87084,0-.2373-3.4375a27.57184,27.57184,0,0,0,.0791-9.07715q-2.84472-15.36034-7.90234-46.19141-.63356-5.63964-2.13379-16.27441a24.3191,24.3191,0,0,0-2.13379-3.16895q-.47388-.59033,2.52881-6.82128a.51238.51238,0,0,1,.47412-.376q.78956,0,2.21289,2.30957,2.44848,3.54492,4.82031,7.08984,3.79321,5.47853,3.79346,6.82129c0,.28711-.1582.42969-.47412.42969a2.93681,2.93681,0,0,1-1.02735-.32227,36.01134,36.01134,0,0,1-4.18847-2.57812q-.15894,1.50439,3.24023,19.76562Q373.06763,482.40528,374.41211,492.93262Z" transform="translate(-192.58724 -49.31433)" fill="#00adb5"/>
        <path d="M466.23828,510.335a21.87462,21.87462,0,0,1-13.51172-4.67285q-4.82226-3.65186-9.32617-16.75781a16.08022,16.08022,0,0,1-3.47656,5.96191q-5.76857,5.90917-19.75586,12.83691-16.35937,8.05665-27.73779,8.05665-12.01319,0-12.01221-12.13868,0-9.50683,10.66846-21.6455,2.13354-2.3628,3.16113-2.36329a.42328.42328,0,0,1,.47412.4834,5.33344,5.33344,0,0,1-1.34326,2.73926q-10.11695,13.26709-9.562,19.38965.47386,5.855,10.11523,5.85449,2.291,0,9.56152-1.87988a88.83222,88.83222,0,0,0,16.51661-6.01563q6.085-3.00732,8.84961-4.67285,9.00878-5.47851,13.19726-11.11816-.47168-1.66407-1.42187-4.99512-.31641-1.18067-4.97852-10.63476-3.63575-6.82032-7.34961-15.03907l1.42383-6.33789a.9671.9671,0,0,1,.71094-.32226q2.60742,0,11.93164,19.44336,3.39843,7.08984,7.0332,20.41015,2.13575,7.89551,7.19141,12.13867a14.38677,14.38677,0,0,0,9.64062,3.75977Z" transform="translate(-192.58724 -49.31433)" fill="#00adb5"/>
        <path d="M529.419,543.33691l-.31641,2.95411q-6.48046,2.09472-21.09961,6.98242-9.88036,3.38379-26.94824,9.99023l.39551-2.90039q8.14013-3.11573,26.94726-9.99023Q515.90478,547.74071,529.419,543.33691Z" transform="translate(-192.58724 -49.31433)" fill="#00adb5"/>
        <path d="M545.18555,489.49512q.71191,6.28418-2.292,9.748-3.00293,3.46583-6.16406,3.46485-16.99073,0-26.86816-3.22266a132.00419,132.00419,0,0,1-25.44629,7.94922Q471.4541,510.335,466.23926,510.335v-7.51953a106.30687,106.30687,0,0,0,14.541-1.77246,201.827,201.827,0,0,0,22.36426-4.94141,7.03781,7.03781,0,0,1-3.24023-5.74707q-.08056-3.91992,3.71386-8.3789a18.11259,18.11259,0,0,1,8.92969-6.06934,1.73985,1.73985,0,0,0,.55371-.10742v-.05371q-1.74022,0-1.581-.59082a27.38307,27.38307,0,0,0,.47461-6.28418c0-.93067.10449-1.39649.3164-1.39649q.07764,0,1.34278.53711,2.76563,1.23633,10.19433,3.65235,2.68653.85986,2.6875,1.5039c0,.3584-.73925.51953-2.21289.4834q-1.18651,0-4.03027-.16113,1.3418,1.45018,7.42773,3.65234a67.17208,67.17208,0,0,1,10.35254,4.458Q543.7627,484.93066,545.18555,489.49512Zm-24.57715-1.665a12.7482,12.7482,0,0,0-2.37012-5.04883q-1.81934-2.417-3.16113-2.417-2.29395,0-5.84766,2.20215-3.79393,2.31006-4.42578,4.61914,1.5,3.70605,7.90234,5.53222A24.87366,24.87366,0,0,0,520.6084,487.83008Zm20.46777,4.78027a31.89036,31.89036,0,0,0-8.69238-5.37109q-4.42675-1.77246-8.77246-3.49121a3.38887,3.38887,0,0,0-.86914-.26856l-.0791-.10742a10.68935,10.68935,0,0,1,.63281,3.81348q0,3.54492-4.18848,7.08984a117.56472,117.56472,0,0,0,17.62207.9668q4.5835-.10693,4.584-2.14844A.64166.64166,0,0,0,541.07617,492.61035Z" transform="translate(-192.58724 -49.31433)" fill="#00adb5"/>
      </g>
    </g>
  </g>
</svg>
