<svg xmlns="http://www.w3.org/2000/svg"  viewBox="0 0 32 32" width="32px" height="32px"><path d="M 15.160156 5 L 12 13.316406 L 12 15 L 14 15 L 14 13.683594 L 14.259766 13 L 17.740234 13 L 18 13.683594 L 18 15 L 20 15 L 20 13.316406 L 16.839844 5 L 15.160156 5 z M 16 8.4199219 L 16.980469 11 L 15.019531 11 L 16 8.4199219 z M 5 17 L 5 27 L 10 27 C 11.649943 27 13 25.649943 13 24 C 13 23.221314 12.658984 22.534704 12.167969 22 C 12.658984 21.465296 13 20.778686 13 20 C 13 18.350057 11.649943 17 10 17 L 5 17 z M 22.667969 17 C 20.654575 17 19 18.653255 19 20.666016 L 19 23.332031 C 19 25.345425 20.653255 27 22.666016 27 L 23.332031 27 C 25.345425 27 27 25.345425 27 23.332031 L 27 23 L 25 23 L 25 23.332031 C 25 24.264637 24.264637 25 23.332031 25 L 22.666016 25 C 21.734776 25 21 24.264637 21 23.332031 L 21 20.666016 C 21 19.734776 21.735363 19 22.667969 19 L 23.333984 19 C 24.265224 19 25 19.735363 25 20.667969 L 25 21 L 27 21 L 27 20.667969 C 27 18.654575 25.346745 17 23.333984 17 L 22.667969 17 z M 7 19 L 10 19 C 10.484057 19 11 19.515943 11 20 C 11 20.484057 10.484057 21 10 21 L 9 21 L 7 21 L 7 19 z M 7 23 L 9 23 L 10 23 C 10.484057 23 11 23.515943 11 24 C 11 24.484057 10.484057 25 10 25 L 7 25 L 7 23 z"/></svg>